<?xml version="1.0" encoding="UTF-8" standalone="no"?>
<!-- Created with Inkscape (http://www.inkscape.org/) -->

<svg
   width="126.44891mm"
   height="116.26054mm"
   viewBox="0 0 126.44891 116.26054"
   version="1.1"
   id="svg1"
   xml:space="preserve"
   inkscape:export-filename="favicon.svg"
   inkscape:export-xdpi="96"
   inkscape:export-ydpi="96"
   xmlns:inkscape="http://www.inkscape.org/namespaces/inkscape"
   xmlns:sodipodi="http://sodipodi.sourceforge.net/DTD/sodipodi-0.dtd"
   xmlns="http://www.w3.org/2000/svg"
   xmlns:svg="http://www.w3.org/2000/svg"><sodipodi:namedview
     id="namedview1"
     pagecolor="#ffffff"
     bordercolor="#000000"
     borderopacity="0.25"
     inkscape:showpageshadow="2"
     inkscape:pageopacity="0.0"
     inkscape:pagecheckerboard="0"
     inkscape:deskcolor="#d1d1d1"
     inkscape:document-units="mm" /><defs
     id="defs1" /><g
     inkscape:label="Layer 1"
     inkscape:groupmode="layer"
     id="layer1"
     transform="translate(-57.924247,-160.9663)"><g
       id="g1"
       transform="translate(-1.1467181,95.559846)"><path
         style="fill:#f5f3f9"
         d="m 117.58485,152.02671 c -2.96801,-0.77729 -5.10268,-2.08883 -11.39303,-6.99985 l -5.76122,-4.49791 4.12998,-0.13924 c 3.82344,-0.1289 4.23088,-0.19194 5.48937,-0.84932 2.56718,-1.34097 4.06457,-3.83392 4.06457,-6.76694 0,-3.02934 -1.45373,-5.44363 -4.08964,-6.79189 -1.42824,-0.73054 -1.82768,-0.80646 -4.69632,-0.89268 l -3.1353,-0.0942 1.15865,-0.73479 c 7.84965,-4.97811 7.06248,-16.42542 -1.40822,-20.47879 -1.60239,-0.76677 -1.91847,-0.82295 -4.630209,-0.82295 -2.431952,0 -3.160614,0.10103 -4.432322,0.61453 -6.401043,2.58467 -9.142851,10.06271 -5.969864,16.28228 0.698621,1.36941 2.70349,3.5058 4.170132,4.44369 l 1.17628,0.75221 h -2.649611 c -2.829494,0 -4.876445,0.44475 -5.956277,1.29415 l -0.637564,0.50151 -5.616532,-4.39856 -5.616532,-4.39856 v -15.40395 c 0,-10.192546 0.09862,-15.878305 0.291494,-16.806042 1.021098,-4.911482 5.276957,-9.057529 10.261805,-9.997024 1.957741,-0.368976 78.00649,-0.368976 79.96423,0 4.96619,0.935979 9.24453,5.103923 10.2618,9.997024 0.19289,0.927769 0.2915,6.614964 0.2915,16.811442 v 15.40935 l -11.04447,8.65471 -11.04447,8.6547 -15.08313,0.004 c -8.29573,0.002 -15.21414,0.0915 -15.37426,0.19844 -0.93051,0.62132 -0.963,2.29484 -0.0559,2.88066 0.19088,0.12328 6.10827,0.28367 13.14975,0.35643 l 12.80269,0.1323 -6.14645,4.82864 -6.14645,4.82865 -6.65624,0.004 c -3.66094,0.002 -6.78725,0.0915 -6.94737,0.19844 -1.09967,0.73427 -0.91832,2.51268 0.3036,2.97725 0.37589,0.14291 1.89607,0.27393 3.37818,0.29114 3.56069,0.0414 2.12731,0.42911 -1.67087,0.45199 -1.94277,0.0117 -3.36555,-0.1371 -4.73175,-0.4949 z m 39.09993,-27.08304 c 0.66761,-0.60431 0.72143,-1.65367 0.11894,-2.31941 -0.416,-0.45967 -1.33297,-0.48385 -18.34753,-0.48385 -17.47306,0 -17.92114,0.0127 -18.38061,0.52039 -0.88514,0.97808 -0.47561,2.4955 0.73888,2.73774 0.31686,0.0632 8.39201,0.10012 17.9448,0.082 16.68363,-0.0316 17.39065,-0.0528 17.92552,-0.5369 z m 0,-13.22917 c 0.66761,-0.60431 0.72143,-1.65367 0.11894,-2.31941 -0.416,-0.45967 -1.33297,-0.48385 -18.34753,-0.48385 -17.47306,0 -17.92114,0.0127 -18.38061,0.5204 -0.88514,0.97807 -0.47561,2.4955 0.73888,2.73774 0.31686,0.0632 8.39201,0.10011 17.9448,0.082 16.68363,-0.0316 17.39065,-0.0528 17.92552,-0.53691 z M 116.0989,100.77661 c 0.8975,-0.31501 1.86564,-0.989182 3.01064,-2.096464 1.50808,-1.458407 1.66848,-1.711873 1.50687,-2.38125 -0.42088,-1.743344 -1.96154,-1.889984 -3.47163,-0.330432 -1.38314,1.428442 -2.32802,1.891333 -3.86071,1.891333 -3.79102,0 -6.58216,-4.511478 -5.7777,-9.3388 0.33956,-2.037542 1.47379,-4.175789 2.7014,-5.092677 2.37495,-1.773808 4.7832,-1.468308 7.10603,0.901437 1.42503,1.453815 2.76984,1.327527 3.28921,-0.308883 0.38459,-1.211739 -2.52578,-3.975082 -5.00335,-4.75059 -1.4989,-0.469173 -4.53737,-0.206754 -5.9421,0.513192 -1.76472,0.904444 -3.40788,2.72609 -4.46291,4.947698 -0.81551,1.717231 -0.96299,2.328665 -1.07412,4.453275 -0.24025,4.593095 1.30267,8.245558 4.46175,10.562006 2.04688,1.500915 5.01602,1.907835 7.51662,1.030155 z m 15.13178,-0.1336 c 0.29681,-0.32742 2.12775,-4.9818 4.06875,-10.343063 3.36534,-9.29548 3.51086,-9.780381 3.13623,-10.451041 -0.43066,-0.770967 -1.84936,-1.105181 -2.47772,-0.583692 -0.19086,0.158397 -1.64119,3.851914 -3.22295,8.207815 -1.58177,4.355901 -2.94622,7.836067 -3.03211,7.733703 -0.0859,-0.102365 -1.37966,-3.579398 -2.87504,-7.726742 -1.49538,-4.147343 -2.90771,-7.754759 -3.13851,-8.01648 -0.6485,-0.735382 -2.20273,-0.511405 -2.62714,0.378594 -0.30261,0.634572 -0.0136,1.575422 3.25093,10.583333 2.33525,6.443715 3.77349,10.048093 4.12988,10.349863 0.77792,0.65872 2.12874,0.59462 2.78768,-0.13229 z"
         id="path7"
         sodipodi:nodetypes="cscssssscsssssscsscccsssssscccccsscccccsssccsssssssssssssssssssssssssssssssssssssssssss"
         sodipodi:insensitive="true" /><path
         style="display:inline;fill:#a1c398;fill-opacity:1"
         d="M 121.78744,180.12449 C 96.336729,169.13589 74.254193,149.75693 60.443375,126.29082 l -1.37241,-2.33188 0.07126,-5.69766 0.07126,-5.69766 10.583333,8.30154 c 5.820833,4.56585 16.953176,13.29824 24.73854,19.40531 7.785362,6.10708 14.880222,11.59131 15.766352,12.18718 3.77547,2.53879 8.16001,3.70498 13.05776,3.47309 4.41156,-0.20887 7.93599,-1.35031 11.30581,-3.66155 0.60713,-0.41641 12.27525,-9.51704 25.92916,-20.22362 l 24.82529,-19.4665 0.0727,27.46869 c 0.0461,17.40025 -0.0257,28.28934 -0.19571,29.7076 -0.7262,6.05685 -5.45434,10.89348 -11.3864,11.64767 -1.12189,0.14263 -12.10413,0.25475 -25.26771,0.25797 l -23.28333,0.006 z"
         id="path6"
         sodipodi:insensitive="true" /><path
         style="display:inline;fill:#9aaf95;fill-opacity:1"
         d="m 70.855149,181.48709 c -5.211905,-0.69127 -9.500369,-4.2877 -11.137737,-9.34044 -0.410896,-1.26798 -0.484654,-2.77733 -0.573272,-11.73124 l -0.06295,-15.52084 0.06215,-13.01612 0.07017,-7.75367 1.003211,1.7825 c 1.329736,2.36265 5.257632,8.28272 7.537109,11.35981 13.877731,18.73371 32.65458,33.62677 54.03364,42.8574 l 3.57187,1.54219 -26.855207,-0.0372 c -14.770364,-0.0204 -27.212395,-0.0845 -27.648957,-0.14243 z M 181.45098,177.7029 c 0.26339,-0.29104 0.53842,-0.52916 0.61118,-0.52916 0.0728,0 -0.0832,0.23812 -0.3466,0.52916 -0.26339,0.29104 -0.53842,0.52917 -0.61118,0.52917 -0.0728,0 0.0832,-0.23813 0.3466,-0.52917 z m 3.85734,-8.621 c 0.0127,-0.30823 0.0754,-0.37092 0.15986,-0.15986 0.0764,0.191 0.067,0.4192 -0.0209,0.50712 -0.0879,0.0879 -0.15046,-0.0684 -0.13897,-0.34726 z"
         id="path5"
         sodipodi:nodetypes="ssccccsssccssssssssssss" /><path
         style="fill:#72816e;fill-opacity:1"
         d="m 66.192917,113.71715 c -1.073793,-0.84924 -2.86796,-2.25963 -3.987038,-3.13419 l -2.034687,-1.59011 4.085208,-3.20999 4.085207,-3.20999 v 6.34418 c 0,3.4893 -0.04418,6.34419 -0.09817,6.34419 -0.05399,0 -0.976728,-0.69484 -2.05052,-1.54409 z M 176.2916,108.93267 v -6.3598 l 4.09592,3.2184 c 2.25275,1.77013 4.06846,3.23692 4.0349,3.25953 -0.0336,0.0226 -1.7279,1.34638 -3.76519,2.9417 -2.0373,1.59531 -3.853,2.99043 -4.0349,3.10027 -0.26095,0.15756 -0.33073,-1.14214 -0.33073,-6.1601 z M 109.77478,70.113124 c 4.47533,-3.45228 7.81789,-4.706666 12.54182,-4.706666 4.72394,0 8.0665,1.254386 12.54183,4.706666 l 2.61994,2.021034 H 122.3166 107.15484 Z"
         id="path4"
         sodipodi:insensitive="true" /><path
         style="fill:#fa7070;fill-opacity:1"
         d="m 91.069857,133.23596 c -2.823402,-2.2117 -5.189542,-4.07165 -5.258088,-4.13322 -0.527844,-0.4741 1.919156,-0.60471 11.396439,-0.60828 10.708162,-0.004 10.745452,-0.002 11.617342,0.59126 1.27296,0.86637 1.88952,1.82987 2.04314,3.19281 0.18039,1.60037 -0.66296,3.3751 -1.99846,4.20554 -0.92495,0.57515 -1.26455,0.60947 -6.82017,0.68924 l -5.846744,0.0839 z m 2.465955,-11.37249 c -6.330599,-3.16344 -6.209799,-11.99126 0.205794,-15.03901 2.08868,-0.99224 5.092322,-0.97073 7.068764,0.0506 6.27986,3.24519 6.29424,11.85122 0.025,14.98398 -1.387219,0.69321 -1.91628,0.81056 -3.654211,0.81056 -1.735507,0 -2.267635,-0.11767 -3.645377,-0.80614 z"
         id="path2"
         sodipodi:nodetypes="ssscssscssscssss"
         sodipodi:insensitive="true" /></g></g></svg>
